<?xml version="1.0" encoding="utf-8"?>
<!-- Generator: Adobe Illustrator 24.2.0, SVG Export Plug-In . SVG Version: 6.00 Build 0)  -->
<svg version="1.1" id="Layer_1" xmlns="http://www.w3.org/2000/svg" xmlns:xlink="http://www.w3.org/1999/xlink" x="0px" y="0px"
	 viewBox="0 0 1200 1200" style="enable-background:new 0 0 1200 1200;" xml:space="preserve">
<style type="text/css">
	.st0{fill:#FFFFFF;}
	.st1{fill:#FF0D0D;}
	.st2{fill:#FFE708;}
</style>
<path id="XMLID_7_" class="st0" d="M260.7,1049.4L27.3,644.6c-21.6-37.5-21.6-83.7,0-121.2l233.4-404.5
	c21.7-37.6,61.8-60.7,105-60.7h466.5c43.3,0,83.5,23.1,105,60.7l233.5,404.7c21.6,37.5,21.6,83.7,0,121.2l-233.4,404.8
	c-21.7,37.6-61.8,60.7-105,60.7H366C322.5,1110.1,282.5,1086.9,260.7,1049.4z"/>
<path id="XMLID_1_" class="st1" d="M280.6,1021.9L61.1,641.2c-20.4-35.3-20.4-78.8,0-114l219.5-380.8c20.5-35.4,58.2-57.1,98.9-57.1
	h439c40.7,0,78.5,21.7,98.9,57.1L1137.1,527c20.4,35.3,20.4,78.8,0,114l-219.6,381c-20.5,35.4-58.2,57.1-98.9,57.1H379.7
	C338.8,1079.1,301.1,1057.3,280.6,1021.9z"/>
<g>
	<g>
		<path class="st2" d="M853.9,903L725,764.3c-3.3,5.4-5.8,8.1-7.6,8.1c-44.1,48.6-93.2,72-147.2,70.3c-54-1.7-103.6-26.8-148.7-75.4
			c-59-63.5-88-136-87-217.5l59.1-63.6c-3.7,89.9,23,165.4,80,226.7c32.5,34.9,66.8,53.8,103.1,56.6c36.3,2.8,68.8-11.3,97.7-42.3
			l8.1-8.7L503.1,525.5c-53.1-57.2-53-114.5,0.5-172.1c37.7-40.5,81.6-56.7,131.8-48.5c50.2,8.2,97.8,36.5,142.7,84.9
			c43.1,46.3,65.2,98.9,66.4,157.8c1.2,58.8-20.2,111.2-64.3,157.2c0,1.9-3,5.1-9.1,9.8L900,853.4L853.9,903z M728.6,669l9.4-10.1
			c28.5-30.6,41.2-65.9,38-105.6c-3.1-39.8-20.5-76.7-52.1-110.7c-29.9-32.1-61.5-53.3-94.8-63.6c-33.3-10.3-60.7-3.9-82,19
			c-23.4,25.2-23.1,50.8,1,76.8L728.6,669z"/>
	</g>
</g>
<g>
	<path class="st2" d="M299.5,848.1l288.1-309.9l51,54.9L350.5,903L299.5,848.1z"/>
</g>
<polygon class="st2" points="629.8,426.2 671.2,459.6 719.6,439.6 703.7,494.9 734.9,540.4 683.6,541.1 654.5,589.3 638.7,534.4 
	589.6,518.7 631.1,484 "/>
</svg>
